<svg width="1028" height="1028" viewBox="0 0 1028 1028" fill="none" xmlns="http://www.w3.org/2000/svg">
<g filter="url(#filter0_d_165_108)">
<path d="M724.052 567.78C781.783 554.36 866.712 618.301 678 710L651 722" stroke="#181818" stroke-width="58"/>
<path d="M724.052 567.78C781.783 554.36 866.712 618.301 678 710L651 722" stroke="#A7A7A7" stroke-width="28"/>
<rect x="305.75" y="508" width="146.459" height="59" transform="rotate(78.1864 305.75 508)" fill="#181818"/>
<path fill-rule="evenodd" clip-rule="evenodd" d="M256 491.621C256 491.748 256 491.875 256 492.002C256 672.047 367.705 818.002 505.5 818.002C642.357 818.002 753.478 674.027 754.984 495.675C688.828 511.523 604.866 521.001 513.5 521.001C414.591 521.001 324.359 509.893 256 491.621Z" fill="white"/>
<path fill-rule="evenodd" clip-rule="evenodd" d="M256 491.621C256 491.748 256 491.875 256 492.002C256 672.047 367.705 818.002 505.5 818.002C642.357 818.002 753.478 674.027 754.984 495.675C688.828 511.523 604.866 521.001 513.5 521.001C414.591 521.001 324.359 509.893 256 491.621Z" fill="#BBBBBB"/>
<path fill-rule="evenodd" clip-rule="evenodd" d="M425.597 800.927C450.682 812 477.555 818.003 505.5 818.003C642.357 818.003 753.478 674.029 754.985 495.676C691.727 510.829 612.19 520.159 525.467 520.948L425.597 800.927Z" fill="#A7A7A7"/>
<ellipse cx="505" cy="500.192" rx="250" ry="96.1924" fill="#623827"/>
<path d="M736 496C736 535.765 660.336 568 567 568C473.664 568 398 535.765 398 496C398 475.475 418.158 456.956 450.5 443.841C480.817 431.546 521.84 424 567 424C660.336 424 736 456.235 736 496Z" fill="#6D3D2A"/>
<path d="M747 500.192C747 510.446 741.63 521.11 729.97 531.717C718.308 542.326 700.986 552.248 678.904 560.744C634.792 577.717 573.31 588.385 505 588.385C436.69 588.385 375.208 577.717 331.096 560.744C309.014 552.248 291.692 542.326 280.03 531.717C268.37 521.11 263 510.446 263 500.192C263 489.939 268.37 479.275 280.03 468.668C291.692 458.059 309.014 448.137 331.096 439.64C375.208 422.668 436.69 412 505 412C573.31 412 634.792 422.668 678.904 439.64C700.986 448.137 718.308 458.059 729.97 468.668C741.63 479.275 747 489.939 747 500.192Z" stroke="white" stroke-width="16"/>
<path fill-rule="evenodd" clip-rule="evenodd" d="M256.008 494.645C256.085 507.297 256.714 519.777 257.864 532.046C246.329 520.249 240 507.419 240 494C240 436.01 358.197 389 504 389C649.803 389 768 436.01 768 494C768 506.069 762.88 517.663 753.457 528.456C754.477 516.487 755 504.324 755 492H751.923C751.297 483.842 746.793 474.659 736.293 464.785C724.896 454.068 707.541 443.68 684.763 434.621C639.299 416.539 575.397 405 504 405C432.603 405 368.701 416.539 323.237 434.621C300.459 443.68 283.104 454.068 271.707 464.785C261.207 474.659 256.703 483.842 256.077 492H256C256 492.536 256.001 493.072 256.003 493.608C256.001 493.739 256 493.87 256 494C256 494.214 256.003 494.429 256.008 494.645Z" fill="#181818"/>
<path fill-rule="evenodd" clip-rule="evenodd" d="M240.065 492C240.022 494.464 240 496.934 240 499.41C240 681.437 358.197 828.998 504 828.998C649.803 828.998 768 681.437 768 499.41C768 496.934 767.978 494.464 767.935 492H751.933C751.978 494.462 752 496.932 752 499.41C752 676.096 637.836 812.998 504 812.998C370.164 812.998 256 676.096 256 499.41C256 496.932 256.022 494.462 256.067 492H240.065Z" fill="#181818"/>
</g>
<g filter="url(#filter1_d_165_108)">
<path fill-rule="evenodd" clip-rule="evenodd" d="M603.372 102.336C608.026 100.695 612.966 101.66 616.6 104.468L587.271 144.854C585.762 146.326 584.302 147.889 582.917 149.542C574.126 160.031 568.386 173.968 571.854 192.425C576.326 216.228 587.492 231.019 598.038 244.988L598.039 244.989C598.724 245.896 599.406 246.8 600.084 247.702C605.364 254.734 611.439 263.045 614.357 272.456C617.62 282.98 616.722 293.839 610.709 305.265L610.451 305.754L610.157 306.221C606.912 311.357 601.327 318.955 594.711 325.563C591.394 328.877 587.526 332.237 583.291 334.914C579.173 337.518 573.808 340.051 567.669 340.489C563.987 340.752 560.535 339.566 557.874 337.415L570.887 309.403C572.155 308.387 573.51 307.165 574.922 305.754C579.568 301.114 583.738 295.529 586.174 291.752C588.697 286.754 588.513 283.651 587.613 280.748C586.34 276.643 583.304 271.987 577.693 264.514C576.965 263.545 576.21 262.548 575.432 261.522C564.813 247.511 550.055 228.038 544.335 197.595C539.082 169.636 548.169 147.412 561.456 131.557C574.387 116.128 591.316 106.587 603.372 102.336Z" fill="url(#paint0_linear_165_108)"/>
<path fill-rule="evenodd" clip-rule="evenodd" d="M514.379 65.8005C520.668 63.583 527.48 66.1246 530.884 71.5436L511.302 98.5079C506.783 101.483 502.16 105.318 498.243 109.992C490.783 118.894 485.936 130.652 488.878 146.312C492.736 166.848 502.341 179.574 511.618 191.864C512.213 192.653 512.806 193.439 513.397 194.225C518.021 200.384 523.547 207.913 526.212 216.51C529.222 226.219 528.369 236.23 522.885 246.65L522.628 247.139L522.333 247.605C519.428 252.205 514.44 258.991 508.515 264.91C505.543 267.878 502.044 270.924 498.181 273.366C494.434 275.735 489.443 278.113 483.66 278.526C479.455 278.826 475.55 277.236 472.78 274.478L484.811 248.58C486.001 247.669 487.32 246.505 488.726 245.1C492.68 241.15 496.251 236.38 498.348 233.14C500.338 229.163 500.118 226.899 499.468 224.802C498.448 221.511 495.961 217.636 491.006 211.038C490.365 210.183 489.698 209.304 489.01 208.396C479.662 196.066 466.465 178.658 461.36 151.482C456.632 126.32 464.826 106.275 476.782 92.0077C488.382 78.1662 503.545 69.6206 514.379 65.8005Z" fill="url(#paint1_linear_165_108)"/>
<path fill-rule="evenodd" clip-rule="evenodd" d="M434.053 102.336C435.942 101.669 437.879 101.433 439.756 101.575L426.167 137.728C420.937 141.335 415.675 145.848 411.145 151.253C401.599 162.644 395.352 177.817 399.118 197.862C403.938 223.52 415.991 239.483 427.258 254.406L427.26 254.408L427.266 254.416C428 255.387 428.73 256.354 429.455 257.319C435.107 264.848 441.494 273.602 444.556 283.476C447.962 294.462 447.039 305.802 440.725 317.8L440.468 318.289L440.173 318.755C436.736 324.197 430.811 332.255 423.803 339.255C420.29 342.765 416.213 346.304 411.767 349.114C407.439 351.851 401.861 354.471 395.52 354.924C392.326 355.152 389.305 354.29 386.824 352.654L400.9 322.352C401.905 321.483 402.947 320.512 404.015 319.446C409.052 314.413 413.563 308.367 416.192 304.285C419.017 298.71 418.853 295.129 417.811 291.768C416.395 287.201 413.047 282.101 407.064 274.132C406.287 273.097 405.481 272.034 404.653 270.941C393.312 255.975 377.667 235.33 371.599 203.033C366.048 173.485 375.642 150.024 389.685 133.268C403.37 116.938 421.303 106.831 434.053 102.336Z" fill="url(#paint2_linear_165_108)"/>
<path fill-rule="evenodd" clip-rule="evenodd" d="M514.379 65.8005C520.668 63.583 527.48 66.1246 530.884 71.5436L511.302 98.5079C506.783 101.483 502.16 105.318 498.243 109.992C490.783 118.894 485.936 130.652 488.878 146.312C492.736 166.848 502.341 179.574 511.618 191.864C512.213 192.653 512.806 193.439 513.397 194.225C518.021 200.384 523.547 207.913 526.212 216.51C529.222 226.219 528.369 236.23 522.885 246.65L522.628 247.139L522.333 247.605C519.428 252.205 514.44 258.991 508.515 264.91C505.543 267.878 502.044 270.924 498.181 273.366C494.434 275.735 489.443 278.113 483.66 278.526C479.455 278.826 475.55 277.236 472.78 274.478L484.811 248.58C486.001 247.669 487.32 246.505 488.726 245.1C492.68 241.15 496.251 236.38 498.348 233.14C500.338 229.163 500.118 226.899 499.468 224.802C498.448 221.511 495.961 217.636 491.006 211.038C490.365 210.183 489.698 209.304 489.01 208.396C479.662 196.066 466.465 178.658 461.36 151.482C456.632 126.32 464.826 106.275 476.782 92.0077C488.382 78.1662 503.545 69.6206 514.379 65.8005Z" fill="#181818"/>
<path fill-rule="evenodd" clip-rule="evenodd" d="M434.053 102.336C435.942 101.669 437.879 101.433 439.756 101.575L426.167 137.728C420.937 141.335 415.675 145.848 411.145 151.253C401.599 162.644 395.352 177.817 399.118 197.862C403.938 223.52 415.991 239.483 427.258 254.406L427.26 254.408L427.266 254.416C428 255.387 428.73 256.354 429.455 257.319C435.107 264.848 441.494 273.602 444.556 283.476C447.962 294.462 447.039 305.802 440.725 317.8L440.468 318.289L440.173 318.755C436.736 324.197 430.811 332.255 423.803 339.255C420.29 342.765 416.213 346.304 411.767 349.114C407.439 351.851 401.861 354.471 395.52 354.924C392.326 355.152 389.305 354.29 386.824 352.654L400.9 322.352C401.905 321.483 402.947 320.512 404.015 319.446C409.052 314.413 413.563 308.367 416.192 304.285C419.017 298.71 418.853 295.129 417.811 291.768C416.395 287.201 413.047 282.101 407.064 274.132C406.287 273.097 405.481 272.034 404.653 270.941C393.312 255.975 377.667 235.33 371.599 203.033C366.048 173.485 375.642 150.024 389.685 133.268C403.37 116.938 421.303 106.831 434.053 102.336Z" fill="#181818"/>
<path fill-rule="evenodd" clip-rule="evenodd" d="M603.372 102.336C608.026 100.695 612.966 101.66 616.6 104.468L587.271 144.854C585.762 146.326 584.302 147.889 582.917 149.542C574.126 160.031 568.386 173.968 571.854 192.425C576.326 216.228 587.492 231.019 598.038 244.988L598.039 244.989C598.724 245.896 599.406 246.8 600.084 247.702C605.364 254.734 611.439 263.045 614.357 272.456C617.62 282.98 616.722 293.839 610.709 305.265L610.451 305.754L610.157 306.221C606.912 311.357 601.327 318.955 594.711 325.563C591.394 328.877 587.526 332.237 583.291 334.914C579.173 337.518 573.808 340.051 567.669 340.489C563.987 340.752 560.535 339.566 557.874 337.415L570.887 309.403C572.155 308.387 573.51 307.165 574.922 305.754C579.568 301.114 583.738 295.529 586.174 291.752C588.697 286.754 588.513 283.651 587.613 280.748C586.34 276.643 583.304 271.987 577.693 264.514C576.965 263.545 576.21 262.548 575.432 261.522C564.813 247.511 550.055 228.038 544.335 197.595C539.082 169.636 548.169 147.412 561.456 131.557C574.387 116.128 591.316 106.587 603.372 102.336Z" fill="#181818"/>
<path fill-rule="evenodd" clip-rule="evenodd" d="M594.372 102.336C599.026 100.695 603.966 101.66 607.6 104.468L578.271 144.854C576.762 146.326 575.302 147.889 573.917 149.542C565.126 160.031 559.386 173.968 562.854 192.425C567.326 216.228 578.492 231.019 589.038 244.988L589.039 244.989C589.724 245.896 590.406 246.8 591.084 247.702C596.364 254.734 602.439 263.045 605.357 272.456C608.62 282.98 607.722 293.839 601.709 305.265L601.451 305.754L601.157 306.221C597.912 311.357 592.327 318.955 585.711 325.563C582.394 328.877 578.526 332.237 574.291 334.914C570.173 337.518 564.808 340.051 558.669 340.489C554.987 340.752 551.535 339.566 548.874 337.415L561.887 309.403C563.155 308.387 564.51 307.165 565.922 305.754C570.568 301.114 574.738 295.529 577.174 291.752C579.697 286.754 579.513 283.651 578.613 280.748C577.34 276.643 574.304 271.987 568.693 264.514C567.965 263.545 567.21 262.548 566.432 261.522C555.813 247.511 541.055 228.038 535.335 197.595C530.082 169.636 539.169 147.412 552.456 131.557C565.387 116.128 582.316 106.587 594.372 102.336Z" fill="#181818"/>
<path fill-rule="evenodd" clip-rule="evenodd" d="M594.372 102.336C599.026 100.695 603.966 101.66 607.6 104.468L578.271 144.854C576.762 146.326 575.302 147.889 573.917 149.542C565.126 160.031 559.386 173.968 562.854 192.425C567.326 216.228 578.492 231.019 589.038 244.988L589.039 244.989C589.724 245.896 590.406 246.8 591.084 247.702C596.364 254.734 602.439 263.045 605.357 272.456C608.62 282.98 607.722 293.839 601.709 305.265L601.451 305.754L601.157 306.221C597.912 311.357 592.327 318.955 585.711 325.563C582.394 328.877 578.526 332.237 574.291 334.914C570.173 337.518 564.808 340.051 558.669 340.489C554.987 340.752 551.535 339.566 548.874 337.415L561.887 309.403C563.155 308.387 564.51 307.165 565.922 305.754C570.568 301.114 574.738 295.529 577.174 291.752C579.697 286.754 579.513 283.651 578.613 280.748C577.34 276.643 574.304 271.987 568.693 264.514C567.965 263.545 567.21 262.548 566.432 261.522C555.813 247.511 541.055 228.038 535.335 197.595C530.082 169.636 539.169 147.412 552.456 131.557C565.387 116.128 582.316 106.587 594.372 102.336Z" fill="url(#paint3_linear_165_108)"/>
<path fill-rule="evenodd" clip-rule="evenodd" d="M505.379 65.8005C511.668 63.583 518.48 66.1246 521.884 71.5436L502.302 98.5079C497.783 101.483 493.16 105.318 489.243 109.992C481.783 118.894 476.936 130.652 479.878 146.312C483.736 166.848 493.341 179.574 502.618 191.864C503.213 192.653 503.806 193.439 504.397 194.225C509.021 200.384 514.547 207.913 517.212 216.51C520.222 226.219 519.369 236.23 513.885 246.65L513.628 247.139L513.333 247.605C510.428 252.205 505.44 258.991 499.515 264.91C496.543 267.878 493.044 270.924 489.181 273.366C485.434 275.735 480.443 278.113 474.66 278.526C470.455 278.826 466.55 277.236 463.78 274.478L475.811 248.58C477.001 247.669 478.32 246.505 479.726 245.1C483.68 241.15 487.251 236.38 489.348 233.14C491.338 229.163 491.118 226.899 490.468 224.802C489.448 221.511 486.961 217.636 482.006 211.038C481.365 210.183 480.698 209.304 480.01 208.396C470.662 196.066 457.465 178.658 452.36 151.482C447.632 126.32 455.826 106.275 467.782 92.0077C479.382 78.1662 494.545 69.6206 505.379 65.8005Z" fill="#181818"/>
<path fill-rule="evenodd" clip-rule="evenodd" d="M505.379 65.8005C511.668 63.583 518.48 66.1246 521.884 71.5436L502.302 98.5079C497.783 101.483 493.16 105.318 489.243 109.992C481.783 118.894 476.936 130.652 479.878 146.312C483.736 166.848 493.341 179.574 502.618 191.864C503.213 192.653 503.806 193.439 504.397 194.225C509.021 200.384 514.547 207.913 517.212 216.51C520.222 226.219 519.369 236.23 513.885 246.65L513.628 247.139L513.333 247.605C510.428 252.205 505.44 258.991 499.515 264.91C496.543 267.878 493.044 270.924 489.181 273.366C485.434 275.735 480.443 278.113 474.66 278.526C470.455 278.826 466.55 277.236 463.78 274.478L475.811 248.58C477.001 247.669 478.32 246.505 479.726 245.1C483.68 241.15 487.251 236.38 489.348 233.14C491.338 229.163 491.118 226.899 490.468 224.802C489.448 221.511 486.961 217.636 482.006 211.038C481.365 210.183 480.698 209.304 480.01 208.396C470.662 196.066 457.465 178.658 452.36 151.482C447.632 126.32 455.826 106.275 467.782 92.0077C479.382 78.1662 494.545 69.6206 505.379 65.8005Z" fill="url(#paint4_linear_165_108)"/>
<path fill-rule="evenodd" clip-rule="evenodd" d="M425.053 102.336C426.942 101.669 428.879 101.433 430.756 101.575L417.167 137.728C411.937 141.335 406.675 145.848 402.145 151.253C392.599 162.644 386.352 177.817 390.118 197.862C394.938 223.52 406.991 239.483 418.258 254.406L418.26 254.408L418.266 254.416C419 255.387 419.73 256.354 420.455 257.319C426.107 264.848 432.494 273.602 435.556 283.476C438.962 294.462 438.039 305.802 431.725 317.8L431.468 318.289L431.173 318.755C427.736 324.197 421.811 332.255 414.803 339.255C411.29 342.765 407.213 346.304 402.767 349.114C398.439 351.851 392.861 354.471 386.52 354.924C383.326 355.152 380.305 354.29 377.824 352.654L391.9 322.352C392.905 321.483 393.947 320.512 395.015 319.446C400.052 314.413 404.563 308.367 407.192 304.285C410.017 298.71 409.853 295.129 408.811 291.768C407.395 287.201 404.047 282.101 398.064 274.132C397.287 273.097 396.481 272.034 395.653 270.941C384.312 255.975 368.667 235.33 362.599 203.033C357.048 173.485 366.642 150.024 380.685 133.268C394.37 116.938 412.303 106.831 425.053 102.336Z" fill="#181818"/>
<path fill-rule="evenodd" clip-rule="evenodd" d="M425.053 102.336C426.942 101.669 428.879 101.433 430.756 101.575L417.167 137.728C411.937 141.335 406.675 145.848 402.145 151.253C392.599 162.644 386.352 177.817 390.118 197.862C394.938 223.52 406.991 239.483 418.258 254.406L418.26 254.408L418.266 254.416C419 255.387 419.73 256.354 420.455 257.319C426.107 264.848 432.494 273.602 435.556 283.476C438.962 294.462 438.039 305.802 431.725 317.8L431.468 318.289L431.173 318.755C427.736 324.197 421.811 332.255 414.803 339.255C411.29 342.765 407.213 346.304 402.767 349.114C398.439 351.851 392.861 354.471 386.52 354.924C383.326 355.152 380.305 354.29 377.824 352.654L391.9 322.352C392.905 321.483 393.947 320.512 395.015 319.446C400.052 314.413 404.563 308.367 407.192 304.285C410.017 298.71 409.853 295.129 408.811 291.768C407.395 287.201 404.047 282.101 398.064 274.132C397.287 273.097 396.481 272.034 395.653 270.941C384.312 255.975 368.667 235.33 362.599 203.033C357.048 173.485 366.642 150.024 380.685 133.268C394.37 116.938 412.303 106.831 425.053 102.336Z" fill="url(#paint5_linear_165_108)"/>
</g>
<defs>
<filter id="filter0_d_165_108" x="240" y="389" width="612.021" height="460" filterUnits="userSpaceOnUse" color-interpolation-filters="sRGB">
<feFlood flood-opacity="0" result="BackgroundImageFix"/>
<feColorMatrix in="SourceAlpha" type="matrix" values="0 0 0 0 0 0 0 0 0 0 0 0 0 0 0 0 0 0 127 0" result="hardAlpha"/>
<feOffset dx="25" dy="16"/>
<feGaussianBlur stdDeviation="2"/>
<feComposite in2="hardAlpha" operator="out"/>
<feColorMatrix type="matrix" values="0 0 0 0 0 0 0 0 0 0 0 0 0 0 0 0 0 0 0.25 0"/>
<feBlend mode="normal" in2="BackgroundImageFix" result="effect1_dropShadow_165_108"/>
<feBlend mode="normal" in="SourceGraphic" in2="effect1_dropShadow_165_108" result="shape"/>
</filter>
<filter id="filter1_d_165_108" x="361" y="65" width="276.6" height="304.961" filterUnits="userSpaceOnUse" color-interpolation-filters="sRGB">
<feFlood flood-opacity="0" result="BackgroundImageFix"/>
<feColorMatrix in="SourceAlpha" type="matrix" values="0 0 0 0 0 0 0 0 0 0 0 0 0 0 0 0 0 0 127 0" result="hardAlpha"/>
<feOffset dx="17" dy="11"/>
<feGaussianBlur stdDeviation="2"/>
<feComposite in2="hardAlpha" operator="out"/>
<feColorMatrix type="matrix" values="0 0 0 0 0 0 0 0 0 0 0 0 0 0 0 0 0 0 0.25 0"/>
<feBlend mode="normal" in2="BackgroundImageFix" result="effect1_dropShadow_165_108"/>
<feBlend mode="normal" in="SourceGraphic" in2="effect1_dropShadow_165_108" result="shape"/>
</filter>
<linearGradient id="paint0_linear_165_108" x1="579.711" y1="101.535" x2="579.711" y2="340.525" gradientUnits="userSpaceOnUse">
<stop stop-color="white"/>
<stop offset="1" stop-color="#FFA43A"/>
</linearGradient>
<linearGradient id="paint1_linear_165_108" x1="495.442" y1="65" x2="495.442" y2="278.562" gradientUnits="userSpaceOnUse">
<stop stop-color="white"/>
<stop offset="1" stop-color="#FFA43A"/>
</linearGradient>
<linearGradient id="paint2_linear_165_108" x1="408.253" y1="101.535" x2="408.253" y2="354.96" gradientUnits="userSpaceOnUse">
<stop stop-color="white"/>
<stop offset="1" stop-color="#FFA43A"/>
</linearGradient>
<linearGradient id="paint3_linear_165_108" x1="570.711" y1="101.535" x2="570.711" y2="340.525" gradientUnits="userSpaceOnUse">
<stop stop-color="white"/>
<stop offset="1" stop-color="#FFA43A"/>
</linearGradient>
<linearGradient id="paint4_linear_165_108" x1="486.442" y1="65" x2="486.442" y2="278.562" gradientUnits="userSpaceOnUse">
<stop stop-color="white"/>
<stop offset="1" stop-color="#FFA43A"/>
</linearGradient>
<linearGradient id="paint5_linear_165_108" x1="399.253" y1="101.535" x2="399.253" y2="354.96" gradientUnits="userSpaceOnUse">
<stop stop-color="white"/>
<stop offset="1" stop-color="#FFA43A"/>
</linearGradient>
</defs>
</svg>
